<svg viewBox="0 0 640.401 94.401" xmlns="http://www.w3.org/2000/svg" id='logo-svg'>
    <!-- Logo -->
    <g class='logo' id="svgGroup" stroke-linecap="round" fill-rule="evenodd" font-size="9pt"><path d="M 16.801 22.901 Q 16.801 15.801 21.751 10.451 Q 26.701 5.101 33.901 2.551 Q 41.101 0.001 48.901 0.001 A 37.634 37.634 0 0 1 56.133 0.661 Q 60.831 1.58 64.585 3.781 A 23.85 23.85 0 0 1 64.951 4.001 Q 71.501 8.001 71.501 15.301 A 12.416 12.416 0 0 1 70.358 20.666 A 12.296 12.296 0 0 1 67.651 24.351 A 14.507 14.507 0 0 1 64.432 26.697 A 11.091 11.091 0 0 1 59.201 28.001 A 10.205 10.205 0 0 1 55.719 27.427 A 8.931 8.931 0 0 1 52.401 25.301 Q 50.007 22.906 50.601 19.331 A 10.427 10.427 0 0 1 50.801 18.401 A 8.133 8.133 0 0 0 53.163 17.539 A 6.804 6.804 0 0 0 55.301 15.651 A 8.097 8.097 0 0 0 56.886 11.16 A 10.132 10.132 0 0 0 56.901 10.601 A 12.846 12.846 0 0 0 56.602 7.735 Q 56.163 5.816 55.08 4.428 A 7.503 7.503 0 0 0 54.051 3.351 A 10.072 10.072 0 0 0 48.405 0.973 A 13.299 13.299 0 0 0 47.001 0.901 Q 41.901 0.901 37.801 4.051 A 11.03 11.03 0 0 0 35.147 6.899 A 9.547 9.547 0 0 0 33.701 12.101 Q 33.701 16.301 37.551 19.551 A 37.585 37.585 0 0 0 42.256 22.911 A 50.035 50.035 0 0 0 46.901 25.401 Q 52.401 28.001 57.851 31.051 Q 63.301 34.101 67.151 39.351 A 19.919 19.919 0 0 1 70.978 50.518 A 24.736 24.736 0 0 1 71.001 51.601 A 27.542 27.542 0 0 1 63.433 70.592 A 40.914 40.914 0 0 1 58.601 75.101 A 45.241 45.241 0 0 1 31.325 84.961 A 56.937 56.937 0 0 1 29.201 85.001 A 45.705 45.705 0 0 1 20.753 84.268 Q 15.932 83.361 12.146 81.328 A 23.393 23.393 0 0 1 7.651 78.201 A 23.938 23.938 0 0 1 2.558 71.983 A 20.367 20.367 0 0 1 0.001 61.901 Q 0.001 53.501 5.801 47.751 A 19.605 19.605 0 0 1 19.492 42.013 A 25.725 25.725 0 0 1 20.301 42.001 Q 28.101 42.001 34.201 46.301 Q 40.187 50.52 40.299 57.531 A 16.807 16.807 0 0 1 40.301 57.801 A 12.368 12.368 0 0 1 39.285 62.86 A 11.961 11.961 0 0 1 36.701 66.551 A 12.141 12.141 0 0 1 29.734 69.931 A 16.828 16.828 0 0 1 27.301 70.101 A 10.431 10.431 0 0 1 23.719 69.508 A 9.058 9.058 0 0 1 20.001 66.951 A 7.565 7.565 0 0 1 18.482 64.423 Q 17.687 62.157 18.501 59.401 A 8.313 8.313 0 0 0 24.484 56.726 A 10.405 10.405 0 0 0 24.601 56.601 A 9.31 9.31 0 0 0 27.099 50.243 A 11.996 11.996 0 0 0 27.101 50.001 A 8.039 8.039 0 0 0 26.814 47.785 A 5.715 5.715 0 0 0 24.551 44.601 Q 22.001 42.801 18.801 42.801 A 11.989 11.989 0 0 0 10.232 46.38 A 18.029 18.029 0 0 0 8.401 48.451 A 21.039 21.039 0 0 0 4.104 61.25 A 25.939 25.939 0 0 0 4.101 61.601 A 21.13 21.13 0 0 0 10.483 77.039 A 26.23 26.23 0 0 0 10.901 77.451 A 22.144 22.144 0 0 0 20.335 82.741 Q 23.761 83.725 27.856 83.94 A 44.694 44.694 0 0 0 30.201 84.001 A 39.178 39.178 0 0 0 38.154 83.239 Q 43.273 82.177 47.228 79.638 A 23.332 23.332 0 0 0 49.351 78.101 A 23.009 23.009 0 0 0 53.442 73.871 A 15.696 15.696 0 0 0 56.601 64.401 A 12.26 12.26 0 0 0 54.423 57.453 A 15.751 15.751 0 0 0 53.651 56.401 A 24.915 24.915 0 0 0 47.114 50.68 A 28.584 28.584 0 0 0 46.301 50.201 Q 41.901 47.701 36.701 44.751 Q 31.501 41.801 27.101 39.051 Q 22.701 36.301 19.751 32.101 Q 16.801 27.901 16.801 22.901 Z M 378.701 22.901 Q 378.701 15.801 383.651 10.451 Q 388.601 5.101 395.801 2.551 Q 403.001 0.001 410.801 0.001 A 37.634 37.634 0 0 1 418.033 0.661 Q 422.731 1.58 426.485 3.781 A 23.85 23.85 0 0 1 426.851 4.001 Q 433.401 8.001 433.401 15.301 A 12.416 12.416 0 0 1 432.258 20.666 A 12.296 12.296 0 0 1 429.551 24.351 A 14.507 14.507 0 0 1 426.332 26.697 A 11.091 11.091 0 0 1 421.101 28.001 A 10.205 10.205 0 0 1 417.619 27.427 A 8.931 8.931 0 0 1 414.301 25.301 Q 411.907 22.906 412.501 19.331 A 10.427 10.427 0 0 1 412.701 18.401 A 8.133 8.133 0 0 0 415.063 17.539 A 6.804 6.804 0 0 0 417.201 15.651 A 8.097 8.097 0 0 0 418.786 11.16 A 10.132 10.132 0 0 0 418.801 10.601 A 12.846 12.846 0 0 0 418.502 7.735 Q 418.063 5.816 416.98 4.428 A 7.503 7.503 0 0 0 415.951 3.351 A 10.072 10.072 0 0 0 410.305 0.973 A 13.299 13.299 0 0 0 408.901 0.901 Q 403.801 0.901 399.701 4.051 A 11.03 11.03 0 0 0 397.047 6.899 A 9.547 9.547 0 0 0 395.601 12.101 Q 395.601 16.301 399.451 19.551 A 37.585 37.585 0 0 0 404.156 22.911 A 50.035 50.035 0 0 0 408.801 25.401 Q 414.301 28.001 419.751 31.051 Q 425.201 34.101 429.051 39.351 A 19.919 19.919 0 0 1 432.878 50.518 A 24.736 24.736 0 0 1 432.901 51.601 A 27.542 27.542 0 0 1 425.333 70.592 A 40.914 40.914 0 0 1 420.501 75.101 A 45.241 45.241 0 0 1 393.225 84.961 A 56.937 56.937 0 0 1 391.101 85.001 A 45.705 45.705 0 0 1 382.653 84.268 Q 377.832 83.361 374.046 81.328 A 23.393 23.393 0 0 1 369.551 78.201 A 23.938 23.938 0 0 1 364.458 71.983 A 20.367 20.367 0 0 1 361.901 61.901 Q 361.901 53.501 367.701 47.751 A 19.605 19.605 0 0 1 381.392 42.013 A 25.725 25.725 0 0 1 382.201 42.001 Q 390.001 42.001 396.101 46.301 Q 402.087 50.52 402.199 57.531 A 16.807 16.807 0 0 1 402.201 57.801 A 12.368 12.368 0 0 1 401.185 62.86 A 11.961 11.961 0 0 1 398.601 66.551 A 12.141 12.141 0 0 1 391.634 69.931 A 16.828 16.828 0 0 1 389.201 70.101 A 10.431 10.431 0 0 1 385.619 69.508 A 9.058 9.058 0 0 1 381.901 66.951 A 7.565 7.565 0 0 1 380.382 64.423 Q 379.587 62.157 380.401 59.401 A 8.313 8.313 0 0 0 386.384 56.726 A 10.405 10.405 0 0 0 386.501 56.601 A 9.31 9.31 0 0 0 388.999 50.243 A 11.996 11.996 0 0 0 389.001 50.001 A 8.039 8.039 0 0 0 388.714 47.785 A 5.715 5.715 0 0 0 386.451 44.601 Q 383.901 42.801 380.701 42.801 A 11.989 11.989 0 0 0 372.132 46.38 A 18.029 18.029 0 0 0 370.301 48.451 A 21.039 21.039 0 0 0 366.004 61.25 A 25.939 25.939 0 0 0 366.001 61.601 A 21.13 21.13 0 0 0 372.383 77.039 A 26.23 26.23 0 0 0 372.801 77.451 A 22.144 22.144 0 0 0 382.235 82.741 Q 385.661 83.725 389.756 83.94 A 44.694 44.694 0 0 0 392.101 84.001 A 39.178 39.178 0 0 0 400.054 83.239 Q 405.173 82.177 409.128 79.638 A 23.332 23.332 0 0 0 411.251 78.101 A 23.009 23.009 0 0 0 415.342 73.871 A 15.696 15.696 0 0 0 418.501 64.401 A 12.26 12.26 0 0 0 416.323 57.453 A 15.751 15.751 0 0 0 415.551 56.401 A 24.915 24.915 0 0 0 409.014 50.68 A 28.584 28.584 0 0 0 408.201 50.201 Q 403.801 47.701 398.601 44.751 Q 393.401 41.801 389.001 39.051 Q 384.601 36.301 381.651 32.101 Q 378.701 27.901 378.701 22.901 Z M 294.001 71.601 L 293.701 71.901 Q 288.601 72.701 285.301 72.701 Q 279.001 72.701 276.701 69.251 A 7.021 7.021 0 0 1 275.823 67.29 Q 274.785 63.692 276.001 57.001 L 281.601 25.501 Q 281.801 23.901 280.651 23.101 A 2.535 2.535 0 0 0 279.563 22.68 Q 278.68 22.547 277.501 22.901 L 277.201 22.601 A 35.252 35.252 0 0 1 279.662 21.572 Q 281.054 21.047 282.674 20.545 A 71.745 71.745 0 0 1 284.701 19.951 A 41.109 41.109 0 0 1 287.908 19.189 Q 290.439 18.701 292.501 18.701 Q 296.266 18.701 297.981 20.128 A 3.89 3.89 0 0 1 298.501 20.651 A 3.892 3.892 0 0 1 299.192 21.975 Q 299.823 23.995 299.101 27.601 L 293.601 50.201 L 294.001 50.301 A 128.937 128.937 0 0 1 296.601 41.613 Q 300.335 30.668 304.851 25.601 A 23.831 23.831 0 0 1 309.367 21.602 A 16.486 16.486 0 0 1 318.701 18.701 Q 331.98 18.701 329.029 33.954 A 41.205 41.205 0 0 1 328.601 35.901 L 325.101 50.201 L 325.501 50.301 A 128.937 128.937 0 0 1 328.101 41.613 Q 331.835 30.668 336.351 25.601 A 23.831 23.831 0 0 1 340.867 21.602 A 16.486 16.486 0 0 1 350.201 18.701 Q 353.098 18.701 355.218 19.478 A 9.532 9.532 0 0 1 356.201 19.901 A 11.704 11.704 0 0 1 357.752 20.821 Q 358.538 21.38 359.096 22.015 A 5.95 5.95 0 0 1 359.651 22.751 A 8.534 8.534 0 0 1 360.526 24.611 Q 360.822 25.487 360.992 26.515 A 15.18 15.18 0 0 1 361.051 26.901 A 26.585 26.585 0 0 1 361.235 28.589 Q 361.342 30.013 361.262 31.25 A 15.203 15.203 0 0 1 361.251 31.401 Q 361.111 33.268 360.753 35.571 A 74.783 74.783 0 0 1 360.701 35.901 L 358.301 50.101 A 118.727 118.727 0 0 0 357.727 53.687 Q 355.423 69.703 360.301 71.601 L 360.001 71.901 Q 356.201 72.701 352.701 72.701 Q 336.901 72.701 339.501 56.501 L 343.501 31.701 A 33.085 33.085 0 0 0 343.745 30.041 Q 343.972 28.148 343.87 26.782 A 8.948 8.948 0 0 0 343.801 26.151 A 3.784 3.784 0 0 0 343.594 25.327 Q 343.158 24.207 342.023 24.11 A 2.6 2.6 0 0 0 341.801 24.101 Q 338.397 24.101 334.993 29.202 A 32.68 32.68 0 0 0 333.601 31.501 Q 330.467 37.157 328.035 45.268 A 116.947 116.947 0 0 0 326.601 50.501 A 167.399 167.399 0 0 0 325.564 55.013 Q 322.384 69.852 325.43 71.563 A 1.678 1.678 0 0 0 325.501 71.601 L 325.201 71.901 Q 320.101 72.701 316.801 72.701 A 17.355 17.355 0 0 1 313.826 72.465 Q 309.934 71.785 308.301 69.151 A 6.945 6.945 0 0 1 307.516 67.259 Q 306.72 64.254 307.528 59.08 A 51.478 51.478 0 0 1 308.001 56.501 L 312.001 31.701 A 33.085 33.085 0 0 0 312.245 30.041 Q 312.472 28.148 312.37 26.782 A 8.948 8.948 0 0 0 312.301 26.151 A 3.784 3.784 0 0 0 312.094 25.327 Q 311.658 24.207 310.523 24.11 A 2.6 2.6 0 0 0 310.301 24.101 Q 306.897 24.101 303.493 29.202 A 32.68 32.68 0 0 0 302.101 31.501 Q 298.967 37.157 296.535 45.268 A 116.947 116.947 0 0 0 295.101 50.501 A 167.399 167.399 0 0 0 294.064 55.013 Q 290.884 69.852 293.93 71.563 A 1.678 1.678 0 0 0 294.001 71.601 Z M 584.601 19.101 L 576.401 71.201 A 28.016 28.016 0 0 1 573.202 80.655 A 25.112 25.112 0 0 1 566.701 88.151 Q 558.701 94.401 544.901 94.401 Q 541.401 94.401 538.251 93.951 Q 535.101 93.501 531.951 92.401 A 12.049 12.049 0 0 1 529.087 90.974 A 9.95 9.95 0 0 1 526.951 89.001 Q 525.101 86.701 525.101 83.501 Q 525.101 79.301 528.051 76.551 A 10.155 10.155 0 0 1 534.901 73.807 A 13.158 13.158 0 0 1 535.301 73.801 Q 538.701 73.801 541.201 76.051 A 6.391 6.391 0 0 1 543.35 80.747 Q 543.373 81.336 543.314 81.97 A 10.595 10.595 0 0 1 543.301 82.101 A 7.908 7.908 0 0 0 541.404 82.546 A 5.769 5.769 0 0 0 539.201 84.001 Q 537.701 85.601 537.701 87.701 A 5.174 5.174 0 0 0 539.359 91.531 A 7.075 7.075 0 0 0 539.651 91.801 A 6.213 6.213 0 0 0 541.799 92.992 Q 542.728 93.302 543.862 93.423 A 14.529 14.529 0 0 0 545.401 93.501 A 13.037 13.037 0 0 0 548.475 93.162 A 8.031 8.031 0 0 0 553.401 89.851 A 16.727 16.727 0 0 0 554.866 87.164 Q 556.37 83.763 557.401 78.401 L 564.601 41.101 L 564.201 41.001 A 144.377 144.377 0 0 1 561.883 49.138 Q 558.301 60.351 554.101 65.601 A 22.389 22.389 0 0 1 550.243 69.441 A 14.575 14.575 0 0 1 541.201 72.601 A 15.642 15.642 0 0 1 536.831 72.026 A 11.031 11.031 0 0 1 530.451 67.251 A 21.036 21.036 0 0 1 527.549 59.927 A 29.489 29.489 0 0 1 527.001 54.101 A 32.466 32.466 0 0 1 529.01 43.03 A 41.261 41.261 0 0 1 531.251 37.951 Q 535.501 29.801 543.201 24.251 Q 550.901 18.701 559.601 18.701 Q 562.601 18.701 566.551 19.901 A 204.09 204.09 0 0 1 569.331 20.765 Q 570.413 21.111 571.368 21.432 A 96.085 96.085 0 0 1 573.151 22.051 A 10.461 10.461 0 0 0 576.709 22.652 Q 577.796 22.652 578.951 22.451 Q 582.101 21.901 584.601 19.101 Z M 178.501 40.501 L 178.601 40.101 Q 188.001 40.601 192.701 36.351 A 14.496 14.496 0 0 0 196.075 31.96 A 13.405 13.405 0 0 0 197.401 26.001 A 8.571 8.571 0 0 0 197.167 23.941 A 6.113 6.113 0 0 0 195.801 21.301 A 5.269 5.269 0 0 0 192.002 19.512 A 7.187 7.187 0 0 0 191.601 19.501 Q 186.201 19.501 182.251 26.501 Q 178.301 33.501 177.801 41.701 Q 177.326 49.977 180.47 55.448 A 17.431 17.431 0 0 0 180.801 56.001 A 11.483 11.483 0 0 0 189.002 61.351 A 18.35 18.35 0 0 0 192.101 61.601 A 19.309 19.309 0 0 0 206.529 55.567 A 23.866 23.866 0 0 0 207.501 54.501 L 208.101 54.801 Q 203.201 62.801 195.651 67.701 A 29.915 29.915 0 0 1 185.077 72.073 A 28.353 28.353 0 0 1 179.601 72.601 Q 170.401 72.601 164.651 66.851 A 19.099 19.099 0 0 1 159.491 57.117 A 28.141 28.141 0 0 1 158.901 51.201 A 30.896 30.896 0 0 1 167.951 29.217 A 40.671 40.671 0 0 1 168.701 28.451 A 32.437 32.437 0 0 1 192.065 18.703 A 39.925 39.925 0 0 1 192.501 18.701 A 44.03 44.03 0 0 1 198.085 19.045 A 39.911 39.911 0 0 1 198.851 19.151 A 29.365 29.365 0 0 1 204.761 20.679 A 32.325 32.325 0 0 1 204.951 20.751 A 11.733 11.733 0 0 1 208.148 22.537 A 10.43 10.43 0 0 1 209.851 24.251 A 8.615 8.615 0 0 1 211.661 28.942 A 11.068 11.068 0 0 1 211.701 29.901 A 10.275 10.275 0 0 1 211.701 29.947 Q 211.688 32.922 209.951 35.601 Q 208.501 37.839 205.572 39.665 A 23.101 23.101 0 0 1 204.301 40.401 Q 201.247 42.045 196.69 42.463 A 34.94 34.94 0 0 1 194.051 42.601 Q 187.701 42.701 178.501 40.501 Z M 607.201 40.501 L 607.301 40.101 Q 616.701 40.601 621.401 36.351 A 14.496 14.496 0 0 0 624.775 31.96 A 13.405 13.405 0 0 0 626.101 26.001 A 8.571 8.571 0 0 0 625.867 23.941 A 6.113 6.113 0 0 0 624.501 21.301 A 5.269 5.269 0 0 0 620.702 19.512 A 7.187 7.187 0 0 0 620.301 19.501 Q 614.901 19.501 610.951 26.501 Q 607.001 33.501 606.501 41.701 Q 606.026 49.977 609.17 55.448 A 17.431 17.431 0 0 0 609.501 56.001 A 11.483 11.483 0 0 0 617.702 61.351 A 18.35 18.35 0 0 0 620.801 61.601 A 19.309 19.309 0 0 0 635.229 55.567 A 23.866 23.866 0 0 0 636.201 54.501 L 636.801 54.801 Q 631.901 62.801 624.351 67.701 A 29.915 29.915 0 0 1 613.777 72.073 A 28.353 28.353 0 0 1 608.301 72.601 Q 599.101 72.601 593.351 66.851 A 19.099 19.099 0 0 1 588.191 57.117 A 28.141 28.141 0 0 1 587.601 51.201 A 30.896 30.896 0 0 1 596.651 29.217 A 40.671 40.671 0 0 1 597.401 28.451 A 32.437 32.437 0 0 1 620.765 18.703 A 39.925 39.925 0 0 1 621.201 18.701 A 44.03 44.03 0 0 1 626.785 19.045 A 39.911 39.911 0 0 1 627.551 19.151 A 29.365 29.365 0 0 1 633.461 20.679 A 32.325 32.325 0 0 1 633.651 20.751 A 11.733 11.733 0 0 1 636.848 22.537 A 10.43 10.43 0 0 1 638.551 24.251 A 8.615 8.615 0 0 1 640.361 28.942 A 11.068 11.068 0 0 1 640.401 29.901 A 10.275 10.275 0 0 1 640.401 29.947 Q 640.388 32.922 638.651 35.601 Q 637.201 37.839 634.272 39.665 A 23.101 23.101 0 0 1 633.001 40.401 Q 629.947 42.045 625.39 42.463 A 34.94 34.94 0 0 1 622.751 42.601 Q 616.401 42.701 607.201 40.501 Z M 123.501 71.601 L 123.201 71.901 Q 120.301 72.701 117.201 72.701 A 16.504 16.504 0 0 1 113.146 72.229 A 11.605 11.605 0 0 1 107.551 69.051 Q 104.08 65.482 105.437 57.371 A 34.451 34.451 0 0 1 105.501 57.001 L 111.101 25.501 Q 111.301 23.901 110.151 23.101 A 2.535 2.535 0 0 0 109.063 22.68 Q 108.18 22.547 107.001 22.901 L 106.701 22.601 A 35.252 35.252 0 0 1 109.162 21.572 Q 110.554 21.047 112.174 20.545 A 71.745 71.745 0 0 1 114.201 19.951 A 41.109 41.109 0 0 1 117.408 19.189 Q 119.939 18.701 122.001 18.701 Q 125.766 18.701 127.481 20.128 A 3.89 3.89 0 0 1 128.001 20.651 A 3.892 3.892 0 0 1 128.692 21.975 Q 129.323 23.995 128.601 27.601 L 123.101 50.301 L 123.501 50.401 Q 128.301 31.901 133.701 24.901 A 19.708 19.708 0 0 1 138.092 20.652 A 15.508 15.508 0 0 1 147.101 17.901 A 18.961 18.961 0 0 1 150.741 18.228 Q 154.417 18.947 156.651 21.251 Q 159.901 24.601 159.901 29.501 Q 159.901 34.901 156.101 38.901 A 12.65 12.65 0 0 1 148.367 42.748 A 17.75 17.75 0 0 1 146.001 42.901 Q 142.301 42.901 139.851 40.601 A 6.55 6.55 0 0 1 137.863 36.762 Q 137.679 35.637 137.782 34.32 A 13.131 13.131 0 0 1 137.801 34.101 A 6.592 6.592 0 0 0 142.122 32.486 A 9.23 9.23 0 0 0 142.951 31.701 Q 145.201 29.301 145.201 25.901 A 8.103 8.103 0 0 0 145.094 24.535 Q 144.865 23.2 144.151 22.351 Q 143.101 21.101 141.301 21.101 A 5.951 5.951 0 0 0 138.004 22.186 Q 135.167 24.056 132.351 29.151 A 60.305 60.305 0 0 0 129.184 35.921 Q 127.768 39.46 126.495 43.662 A 136.877 136.877 0 0 0 124.601 50.601 A 165.721 165.721 0 0 0 123.564 55.09 Q 120.347 70.024 123.501 71.601 Z M 271.801 19.101 L 266.501 50.101 A 118.727 118.727 0 0 0 265.927 53.687 Q 263.623 69.703 268.501 71.601 L 268.201 71.901 A 29.679 29.679 0 0 1 264.38 72.467 A 38.636 38.636 0 0 1 261.101 72.601 A 22.754 22.754 0 0 1 256.725 72.206 Q 252.537 71.385 249.901 68.851 A 7.965 7.965 0 0 1 247.697 64.901 Q 246.873 61.53 248.101 56.501 L 251.801 41.101 L 251.401 41.001 A 144.377 144.377 0 0 1 249.083 49.138 Q 245.501 60.351 241.301 65.601 A 22.389 22.389 0 0 1 237.443 69.441 A 14.575 14.575 0 0 1 228.401 72.601 A 15.642 15.642 0 0 1 224.031 72.026 A 11.031 11.031 0 0 1 217.651 67.251 A 21.036 21.036 0 0 1 214.749 59.927 A 29.489 29.489 0 0 1 214.201 54.101 A 32.466 32.466 0 0 1 216.21 43.03 A 41.261 41.261 0 0 1 218.451 37.951 Q 222.701 29.801 230.401 24.251 Q 238.101 18.701 246.801 18.701 Q 249.801 18.701 253.751 19.901 A 204.09 204.09 0 0 1 256.531 20.765 Q 257.613 21.111 258.568 21.432 A 96.085 96.085 0 0 1 260.351 22.051 A 10.461 10.461 0 0 0 263.909 22.652 Q 264.996 22.652 266.151 22.451 Q 269.301 21.901 271.801 19.101 Z M 524.001 19.101 L 518.701 50.101 A 118.727 118.727 0 0 0 518.127 53.687 Q 515.823 69.703 520.701 71.601 L 520.401 71.901 A 29.679 29.679 0 0 1 516.58 72.467 A 38.636 38.636 0 0 1 513.301 72.601 A 22.754 22.754 0 0 1 508.925 72.206 Q 504.737 71.385 502.101 68.851 A 7.965 7.965 0 0 1 499.897 64.901 Q 499.073 61.53 500.301 56.501 L 504.001 41.101 L 503.601 41.001 A 144.377 144.377 0 0 1 501.283 49.138 Q 497.701 60.351 493.501 65.601 A 22.389 22.389 0 0 1 489.643 69.441 A 14.575 14.575 0 0 1 480.601 72.601 A 15.642 15.642 0 0 1 476.231 72.026 A 11.031 11.031 0 0 1 469.851 67.251 A 21.036 21.036 0 0 1 466.949 59.927 A 29.489 29.489 0 0 1 466.401 54.101 A 32.466 32.466 0 0 1 468.41 43.03 A 41.261 41.261 0 0 1 470.651 37.951 Q 474.901 29.801 482.601 24.251 Q 490.301 18.701 499.001 18.701 Q 502.001 18.701 505.951 19.901 A 204.09 204.09 0 0 1 508.731 20.765 Q 509.813 21.111 510.768 21.432 A 96.085 96.085 0 0 1 512.551 22.051 A 10.461 10.461 0 0 0 516.109 22.652 Q 517.196 22.652 518.351 22.451 Q 521.501 21.901 524.001 19.101 Z M 102.801 0.401 L 103.701 0.401 L 100.501 19.401 L 107.501 19.401 L 107.301 20.401 L 100.401 20.401 L 95.401 50.601 A 124.707 124.707 0 0 0 94.868 54.156 Q 93.025 67.851 96.136 71.226 A 3.342 3.342 0 0 0 97.401 72.101 L 97.101 72.401 Q 94.301 72.801 92.201 72.801 A 25.933 25.933 0 0 1 88.013 72.473 A 22.313 22.313 0 0 1 86.201 72.101 Q 83.401 71.401 80.851 69.801 Q 78.301 68.201 77.201 64.901 A 12.343 12.343 0 0 1 76.647 62.274 Q 76.466 60.541 76.683 58.536 A 24.208 24.208 0 0 1 76.901 57.001 L 82.601 20.401 L 78.101 20.401 L 78.301 19.401 Q 85.444 19.401 90.413 17.62 A 18.846 18.846 0 0 0 95.251 15.101 Q 101.101 10.801 102.801 0.401 Z M 464.701 0.401 L 465.601 0.401 L 462.401 19.401 L 469.401 19.401 L 469.201 20.401 L 462.301 20.401 L 457.301 50.601 A 124.707 124.707 0 0 0 456.768 54.156 Q 454.925 67.851 458.036 71.226 A 3.342 3.342 0 0 0 459.301 72.101 L 459.001 72.401 Q 456.201 72.801 454.101 72.801 A 25.933 25.933 0 0 1 449.913 72.473 A 22.313 22.313 0 0 1 448.101 72.101 Q 445.301 71.401 442.751 69.801 Q 440.201 68.201 439.101 64.901 A 12.343 12.343 0 0 1 438.547 62.274 Q 438.366 60.541 438.583 58.536 A 24.208 24.208 0 0 1 438.801 57.001 L 444.501 20.401 L 440.001 20.401 L 440.201 19.401 Q 447.344 19.401 452.313 17.62 A 18.846 18.846 0 0 0 457.151 15.101 Q 463.001 10.801 464.701 0.401 Z M 251.101 36.901 L 252.201 30.801 Q 253.401 24.701 252.501 22.101 Q 251.601 19.501 248.001 19.501 A 5.381 5.381 0 0 0 245.038 20.46 Q 243.194 21.663 241.385 24.374 A 28.797 28.797 0 0 0 240.351 26.051 Q 236.601 32.601 234.451 41.801 A 83.131 83.131 0 0 0 232.63 52.679 A 68.525 68.525 0 0 0 232.301 59.301 Q 232.301 63.794 233.434 65.731 A 2.635 2.635 0 0 0 235.801 67.201 Q 240.201 67.201 244.601 57.901 A 76.86 76.86 0 0 0 249.203 45.338 A 96.009 96.009 0 0 0 251.101 36.901 Z M 503.301 36.901 L 504.401 30.801 Q 505.601 24.701 504.701 22.101 Q 503.801 19.501 500.201 19.501 A 5.381 5.381 0 0 0 497.238 20.46 Q 495.394 21.663 493.585 24.374 A 28.797 28.797 0 0 0 492.551 26.051 Q 488.801 32.601 486.651 41.801 A 83.131 83.131 0 0 0 484.83 52.679 A 68.525 68.525 0 0 0 484.501 59.301 Q 484.501 63.794 485.634 65.731 A 2.635 2.635 0 0 0 488.001 67.201 Q 492.401 67.201 496.801 57.901 A 76.86 76.86 0 0 0 501.403 45.338 A 96.009 96.009 0 0 0 503.301 36.901 Z M 563.901 36.901 L 565.001 30.801 Q 566.201 24.701 565.301 22.101 Q 564.401 19.501 560.801 19.501 A 5.381 5.381 0 0 0 557.838 20.46 Q 555.994 21.663 554.185 24.374 A 28.797 28.797 0 0 0 553.151 26.051 Q 549.401 32.601 547.251 41.801 A 83.131 83.131 0 0 0 545.43 52.679 A 68.525 68.525 0 0 0 545.101 59.301 Q 545.101 63.794 546.234 65.731 A 2.635 2.635 0 0 0 548.601 67.201 Q 553.001 67.201 557.401 57.901 A 76.86 76.86 0 0 0 562.003 45.338 A 96.009 96.009 0 0 0 563.901 36.901 Z" vector-effect="non-scaling-stroke"/></g></svg>